<svg aria-hidden="true" style="position: absolute; width: 0; height: 0; overflow: hidden;" version="1.1" xmlns="http://www.w3.org/2000/svg" xmlns:xlink="http://www.w3.org/1999/xlink">
<defs>
<symbol id="icon-dice1" viewBox="0 0 32 32">
<title>dice1</title>
<path fill="#267292" style="fill: var(--color1, #267292)" d="M29.714 32h-27.429c-1.262 0-2.286-1.023-2.286-2.286v-27.429c0-1.262 1.023-2.286 2.286-2.286h27.429c1.262 0 2.286 1.023 2.286 2.286v27.429c0 1.262-1.023 2.286-2.286 2.286z"></path>
<path fill="#87c0dd" style="fill: var(--color2, #87c0dd)" d="M3.714 28.571c-0.158 0-0.286-0.128-0.286-0.286v-17.429c0-0.316-0.256-0.571-0.571-0.571s-0.571 0.256-0.571 0.571v17.429c0 0.789 0.64 1.429 1.429 1.429h20.286c0.316 0 0.571-0.256 0.571-0.571s-0.256-0.571-0.571-0.571h-20.286z"></path>
<path fill="#87c0dd" style="fill: var(--color2, #87c0dd)" d="M3.429 3.714c0-0.158 0.128-0.286 0.286-0.286h24.571c0.158 0 0.286 0.128 0.286 0.286v24.571c0 0.158-0.128 0.286-0.286 0.286h-2c-0.316 0-0.571 0.256-0.571 0.571s0.256 0.571 0.571 0.571h2c0.789 0 1.429-0.64 1.429-1.429v-24.571c0-0.789-0.64-1.429-1.429-1.429h-24.571c-0.789 0-1.429 0.639-1.429 1.429v2.571c0 0.316 0.256 0.571 0.571 0.571s0.571-0.256 0.571-0.571v-2.571z"></path>
<path fill="#87c0dd" style="fill: var(--color2, #87c0dd)" d="M3.429 8.571c0-0.315-0.256-0.571-0.571-0.571s-0.571 0.256-0.571 0.571 0.256 0.571 0.571 0.571 0.571-0.256 0.571-0.571z"></path>
<path fill="#fff" style="fill: var(--color3, #fff)" d="M18.286 16c0-1.262-1.023-2.286-2.286-2.286s-2.286 1.023-2.286 2.286c0 1.262 1.023 2.286 2.286 2.286s2.286-1.023 2.286-2.286z"></path>
</symbol>
<symbol id="icon-dice2" viewBox="0 0 32 32">
<title>dice2</title>
<path fill="#267292" style="fill: var(--color1, #267292)" d="M29.714 32h-27.429c-1.262 0-2.286-1.023-2.286-2.286v-27.429c0-1.262 1.023-2.286 2.286-2.286h27.429c1.262 0 2.286 1.023 2.286 2.286v27.429c0 1.262-1.023 2.286-2.286 2.286z"></path>
<path fill="#87c0dd" style="fill: var(--color2, #87c0dd)" d="M3.714 28.571c-0.158 0-0.286-0.128-0.286-0.286v-17.429c0-0.316-0.256-0.571-0.571-0.571s-0.571 0.256-0.571 0.571v17.429c0 0.789 0.64 1.429 1.429 1.429h20.286c0.316 0 0.571-0.256 0.571-0.571s-0.256-0.571-0.571-0.571h-20.286z"></path>
<path fill="#87c0dd" style="fill: var(--color2, #87c0dd)" d="M3.429 3.714c0-0.158 0.128-0.286 0.286-0.286h24.571c0.158 0 0.286 0.128 0.286 0.286v24.571c0 0.158-0.128 0.286-0.286 0.286h-2c-0.316 0-0.571 0.256-0.571 0.571s0.256 0.571 0.571 0.571h2c0.789 0 1.429-0.64 1.429-1.429v-24.571c0-0.789-0.64-1.429-1.429-1.429h-24.571c-0.789 0-1.429 0.639-1.429 1.429v2.571c0 0.316 0.256 0.571 0.571 0.571s0.571-0.256 0.571-0.571v-2.571z"></path>
<path fill="#87c0dd" style="fill: var(--color2, #87c0dd)" d="M3.429 8.571c0-0.315-0.256-0.571-0.571-0.571s-0.571 0.256-0.571 0.571 0.256 0.571 0.571 0.571 0.571-0.256 0.571-0.571z"></path>
<path fill="#fff" style="fill: var(--color3, #fff)" d="M11.429 9.143c0-1.262-1.023-2.286-2.286-2.286s-2.286 1.023-2.286 2.286 1.023 2.286 2.286 2.286 2.286-1.023 2.286-2.286z"></path>
<path fill="#fff" style="fill: var(--color3, #fff)" d="M25.143 22.857c0-1.262-1.023-2.286-2.286-2.286s-2.286 1.023-2.286 2.286 1.023 2.286 2.286 2.286 2.286-1.023 2.286-2.286z"></path>
</symbol>
<symbol id="icon-dice3" viewBox="0 0 32 32">
<title>dice3</title>
<path fill="#267292" style="fill: var(--color1, #267292)" d="M29.714 32h-27.429c-1.262 0-2.286-1.023-2.286-2.286v-27.429c0-1.262 1.023-2.286 2.286-2.286h27.429c1.262 0 2.286 1.023 2.286 2.286v27.429c0 1.262-1.023 2.286-2.286 2.286z"></path>
<path fill="#87c0dd" style="fill: var(--color2, #87c0dd)" d="M3.714 28.571c-0.158 0-0.286-0.128-0.286-0.286v-17.429c0-0.316-0.256-0.571-0.571-0.571s-0.571 0.256-0.571 0.571v17.429c0 0.789 0.64 1.429 1.429 1.429h20.286c0.316 0 0.571-0.256 0.571-0.571s-0.256-0.571-0.571-0.571h-20.286z"></path>
<path fill="#87c0dd" style="fill: var(--color2, #87c0dd)" d="M3.429 3.714c0-0.158 0.128-0.286 0.286-0.286h24.571c0.158 0 0.286 0.128 0.286 0.286v24.571c0 0.158-0.128 0.286-0.286 0.286h-2c-0.316 0-0.571 0.256-0.571 0.571s0.256 0.571 0.571 0.571h2c0.789 0 1.429-0.64 1.429-1.429v-24.571c0-0.789-0.64-1.429-1.429-1.429h-24.571c-0.789 0-1.429 0.639-1.429 1.429v2.571c0 0.316 0.256 0.571 0.571 0.571s0.571-0.256 0.571-0.571v-2.571z"></path>
<path fill="#87c0dd" style="fill: var(--color2, #87c0dd)" d="M3.429 8.571c0-0.315-0.256-0.571-0.571-0.571s-0.571 0.256-0.571 0.571 0.256 0.571 0.571 0.571 0.571-0.256 0.571-0.571z"></path>
<path fill="#fff" style="fill: var(--color3, #fff)" d="M11.429 9.143c0-1.262-1.023-2.286-2.286-2.286s-2.286 1.023-2.286 2.286 1.023 2.286 2.286 2.286 2.286-1.023 2.286-2.286z"></path>
<path fill="#fff" style="fill: var(--color3, #fff)" d="M25.143 22.857c0-1.262-1.023-2.286-2.286-2.286s-2.286 1.023-2.286 2.286 1.023 2.286 2.286 2.286 2.286-1.023 2.286-2.286z"></path>
<path fill="#fff" style="fill: var(--color3, #fff)" d="M18.286 16c0-1.262-1.023-2.286-2.286-2.286s-2.286 1.023-2.286 2.286c0 1.262 1.023 2.286 2.286 2.286s2.286-1.023 2.286-2.286z"></path>
</symbol>
<symbol id="icon-dice4" viewBox="0 0 32 32">
<title>dice4</title>
<path fill="#267292" style="fill: var(--color1, #267292)" d="M29.714 32h-27.429c-1.262 0-2.286-1.023-2.286-2.286v-27.429c0-1.262 1.023-2.286 2.286-2.286h27.429c1.262 0 2.286 1.023 2.286 2.286v27.429c0 1.262-1.023 2.286-2.286 2.286z"></path>
<path fill="#87c0dd" style="fill: var(--color2, #87c0dd)" d="M3.714 28.571c-0.158 0-0.286-0.128-0.286-0.286v-17.429c0-0.316-0.256-0.571-0.571-0.571s-0.571 0.256-0.571 0.571v17.429c0 0.789 0.64 1.429 1.429 1.429h20.286c0.316 0 0.571-0.256 0.571-0.571s-0.256-0.571-0.571-0.571h-20.286z"></path>
<path fill="#87c0dd" style="fill: var(--color2, #87c0dd)" d="M3.429 3.714c0-0.158 0.128-0.286 0.286-0.286h24.571c0.158 0 0.286 0.128 0.286 0.286v24.571c0 0.158-0.128 0.286-0.286 0.286h-2c-0.316 0-0.571 0.256-0.571 0.571s0.256 0.571 0.571 0.571h2c0.789 0 1.429-0.64 1.429-1.429v-24.571c0-0.789-0.64-1.429-1.429-1.429h-24.571c-0.789 0-1.429 0.639-1.429 1.429v2.571c0 0.316 0.256 0.571 0.571 0.571s0.571-0.256 0.571-0.571v-2.571z"></path>
<path fill="#87c0dd" style="fill: var(--color2, #87c0dd)" d="M3.429 8.571c0-0.315-0.256-0.571-0.571-0.571s-0.571 0.256-0.571 0.571 0.256 0.571 0.571 0.571 0.571-0.256 0.571-0.571z"></path>
<path fill="#fff" style="fill: var(--color3, #fff)" d="M11.429 9.143c0-1.262-1.023-2.286-2.286-2.286s-2.286 1.023-2.286 2.286 1.023 2.286 2.286 2.286 2.286-1.023 2.286-2.286z"></path>
<path fill="#fff" style="fill: var(--color3, #fff)" d="M25.143 9.143c0-1.262-1.023-2.286-2.286-2.286s-2.286 1.023-2.286 2.286 1.023 2.286 2.286 2.286 2.286-1.023 2.286-2.286z"></path>
<path fill="#fff" style="fill: var(--color3, #fff)" d="M25.143 22.857c0-1.262-1.023-2.286-2.286-2.286s-2.286 1.023-2.286 2.286 1.023 2.286 2.286 2.286 2.286-1.023 2.286-2.286z"></path>
<path fill="#fff" style="fill: var(--color3, #fff)" d="M11.429 22.857c0-1.262-1.023-2.286-2.286-2.286s-2.286 1.023-2.286 2.286 1.023 2.286 2.286 2.286 2.286-1.023 2.286-2.286z"></path>
</symbol>
<symbol id="icon-dice5" viewBox="0 0 32 32">
<title>dice5</title>
<path fill="#267292" style="fill: var(--color1, #267292)" d="M29.714 32h-27.429c-1.262 0-2.286-1.023-2.286-2.286v-27.429c0-1.262 1.023-2.286 2.286-2.286h27.429c1.262 0 2.286 1.023 2.286 2.286v27.429c0 1.262-1.023 2.286-2.286 2.286z"></path>
<path fill="#fff" style="fill: var(--color3, #fff)" d="M18.286 16c0-1.262-1.023-2.286-2.286-2.286s-2.286 1.023-2.286 2.286c0 1.262 1.023 2.286 2.286 2.286s2.286-1.023 2.286-2.286z"></path>
<path fill="#fff" style="fill: var(--color3, #fff)" d="M11.429 22.857c0-1.262-1.023-2.286-2.286-2.286s-2.286 1.023-2.286 2.286 1.023 2.286 2.286 2.286 2.286-1.023 2.286-2.286z"></path>
<path fill="#fff" style="fill: var(--color3, #fff)" d="M11.429 9.143c0-1.262-1.023-2.286-2.286-2.286s-2.286 1.023-2.286 2.286 1.023 2.286 2.286 2.286 2.286-1.023 2.286-2.286z"></path>
<path fill="#fff" style="fill: var(--color3, #fff)" d="M25.143 22.857c0-1.262-1.023-2.286-2.286-2.286s-2.286 1.023-2.286 2.286 1.023 2.286 2.286 2.286 2.286-1.023 2.286-2.286z"></path>
<path fill="#fff" style="fill: var(--color3, #fff)" d="M25.143 9.143c0-1.262-1.023-2.286-2.286-2.286s-2.286 1.023-2.286 2.286 1.023 2.286 2.286 2.286 2.286-1.023 2.286-2.286z"></path>
<path fill="#87c0dd" style="fill: var(--color2, #87c0dd)" d="M3.714 28.571c-0.158 0-0.286-0.128-0.286-0.286v-17.429c0-0.316-0.256-0.571-0.571-0.571s-0.571 0.256-0.571 0.571v17.429c0 0.789 0.64 1.429 1.429 1.429h20.286c0.316 0 0.571-0.256 0.571-0.571s-0.256-0.571-0.571-0.571h-20.286z"></path>
<path fill="#87c0dd" style="fill: var(--color2, #87c0dd)" d="M3.429 3.714c0-0.158 0.128-0.286 0.286-0.286h24.571c0.158 0 0.286 0.128 0.286 0.286v24.571c0 0.158-0.128 0.286-0.286 0.286h-2c-0.316 0-0.571 0.256-0.571 0.571s0.256 0.571 0.571 0.571h2c0.789 0 1.429-0.64 1.429-1.429v-24.571c0-0.789-0.64-1.429-1.429-1.429h-24.571c-0.789 0-1.429 0.639-1.429 1.429v2.571c0 0.316 0.256 0.571 0.571 0.571s0.571-0.256 0.571-0.571v-2.571z"></path>
<path fill="#87c0dd" style="fill: var(--color2, #87c0dd)" d="M3.429 8.571c0-0.315-0.256-0.571-0.571-0.571s-0.571 0.256-0.571 0.571 0.256 0.571 0.571 0.571 0.571-0.256 0.571-0.571z"></path>
</symbol>
<symbol id="icon-dice6" viewBox="0 0 32 32">
<title>dice6</title>
<path fill="#267292" style="fill: var(--color1, #267292)" d="M29.714 32h-27.429c-1.262 0-2.286-1.023-2.286-2.286v-27.429c0-1.262 1.023-2.286 2.286-2.286h27.429c1.262 0 2.286 1.023 2.286 2.286v27.429c0 1.262-1.023 2.286-2.286 2.286z"></path>
<path fill="#fff" style="fill: var(--color3, #fff)" d="M25.143 16c0-1.262-1.023-2.286-2.286-2.286s-2.286 1.023-2.286 2.286c0 1.262 1.023 2.286 2.286 2.286s2.286-1.023 2.286-2.286z"></path>
<path fill="#fff" style="fill: var(--color3, #fff)" d="M11.429 16c0-1.262-1.023-2.286-2.286-2.286s-2.286 1.023-2.286 2.286c0 1.262 1.023 2.286 2.286 2.286s2.286-1.023 2.286-2.286z"></path>
<path fill="#fff" style="fill: var(--color3, #fff)" d="M11.429 22.857c0-1.262-1.023-2.286-2.286-2.286s-2.286 1.023-2.286 2.286 1.023 2.286 2.286 2.286 2.286-1.023 2.286-2.286z"></path>
<path fill="#fff" style="fill: var(--color3, #fff)" d="M11.429 9.143c0-1.262-1.023-2.286-2.286-2.286s-2.286 1.023-2.286 2.286 1.023 2.286 2.286 2.286 2.286-1.023 2.286-2.286z"></path>
<path fill="#fff" style="fill: var(--color3, #fff)" d="M25.143 22.857c0-1.262-1.023-2.286-2.286-2.286s-2.286 1.023-2.286 2.286 1.023 2.286 2.286 2.286 2.286-1.023 2.286-2.286z"></path>
<path fill="#fff" style="fill: var(--color3, #fff)" d="M25.143 9.143c0-1.262-1.023-2.286-2.286-2.286s-2.286 1.023-2.286 2.286 1.023 2.286 2.286 2.286 2.286-1.023 2.286-2.286z"></path>
<path fill="#87c0dd" style="fill: var(--color2, #87c0dd)" d="M3.714 28.571c-0.158 0-0.286-0.128-0.286-0.286v-17.429c0-0.316-0.256-0.571-0.571-0.571s-0.571 0.256-0.571 0.571v17.429c0 0.789 0.64 1.429 1.429 1.429h20.286c0.316 0 0.571-0.256 0.571-0.571s-0.256-0.571-0.571-0.571h-20.286z"></path>
<path fill="#87c0dd" style="fill: var(--color2, #87c0dd)" d="M3.429 3.714c0-0.158 0.128-0.286 0.286-0.286h24.571c0.158 0 0.286 0.128 0.286 0.286v24.571c0 0.158-0.128 0.286-0.286 0.286h-2c-0.316 0-0.571 0.256-0.571 0.571s0.256 0.571 0.571 0.571h2c0.789 0 1.429-0.64 1.429-1.429v-24.571c0-0.789-0.64-1.429-1.429-1.429h-24.571c-0.789 0-1.429 0.639-1.429 1.429v2.571c0 0.316 0.256 0.571 0.571 0.571s0.571-0.256 0.571-0.571v-2.571z"></path>
<path fill="#87c0dd" style="fill: var(--color2, #87c0dd)" d="M3.429 8.571c0-0.315-0.256-0.571-0.571-0.571s-0.571 0.256-0.571 0.571 0.256 0.571 0.571 0.571 0.571-0.256 0.571-0.571z"></path>
</symbol>
<symbol id="icon-dice" viewBox="0 0 32 32">
<title>dice</title>
<path fill="#87c0dd" style="fill: var(--color2, #87c0dd)" d="M18.9 2.694l-9.808-2.628c-1.030-0.276-2.090 0.335-2.366 1.366l-2.628 9.808c-0.276 1.030 0.335 2.090 1.366 2.366l9.808 2.628c1.030 0.276 2.090-0.335 2.366-1.366l2.628-9.808c0.276-1.030-0.335-2.090-1.366-2.366z"></path>
<path fill="#267292" style="fill: var(--color1, #267292)" d="M19.766 3.195c-0.644 0.173-1.181 0.675-1.366 1.366l-2.086 7.787c-0.299 1.116-1.447 1.779-2.563 1.48l-7.787-2.086c-0.691-0.185-1.394 0.029-1.866 0.5 0.173 0.644 0.675 1.181 1.366 1.366l9.808 2.628c1.030 0.276 2.090-0.335 2.366-1.366l2.628-9.808c0.185-0.691-0.029-1.394-0.5-1.866z"></path>
<path fill="#87c0dd" style="fill: var(--color2, #87c0dd)" d="M27.902 26.94l-2.628-9.808c-0.276-1.030-1.335-1.642-2.366-1.366l-9.808 2.628c-1.030 0.276-1.642 1.335-1.366 2.366l2.628 9.808c0.276 1.030 1.335 1.642 2.366 1.366l9.808-2.628c1.030-0.276 1.642-1.335 1.366-2.366z"></path>
<path fill="#267292" style="fill: var(--color1, #267292)" d="M25.274 17.132c-0.185-0.691-0.722-1.192-1.366-1.366-0.471 0.472-0.685 1.175-0.5 1.866l2.086 7.787c0.299 1.116-0.363 2.264-1.48 2.563l-7.787 2.087c-0.691 0.185-1.192 0.722-1.366 1.366 0.472 0.471 1.175 0.685 1.866 0.5l9.808-2.628c1.030-0.276 1.642-1.335 1.366-2.366l-2.628-9.808z"></path>
<path fill="#fff9eb" style="fill: var(--color4, #fff9eb)" d="M23.314 20.301c0 0.8-0.649 1.449-1.449 1.449s-1.449-0.649-1.449-1.449c0-0.8 0.649-1.449 1.449-1.449s1.449 0.649 1.449 1.449z"></path>
<path fill="#fff9eb" style="fill: var(--color4, #fff9eb)" d="M19.217 27.398c0 0.8-0.649 1.449-1.449 1.449s-1.449-0.649-1.449-1.449c0-0.8 0.649-1.449 1.449-1.449s1.449 0.649 1.449 1.449z"></path>
<path fill="#fff9eb" style="fill: var(--color4, #fff9eb)" d="M21.267 23.85c0 0.8-0.649 1.449-1.449 1.449s-1.449-0.649-1.449-1.449c0-0.8 0.649-1.449 1.449-1.449s1.449 0.649 1.449 1.449z"></path>
<path fill="#fff9eb" style="fill: var(--color4, #fff9eb)" d="M11.581 4.602c0 0.8-0.649 1.449-1.449 1.449s-1.449-0.649-1.449-1.449c0-0.8 0.649-1.449 1.449-1.449s1.449 0.649 1.449 1.449z"></path>
<path fill="#fff9eb" style="fill: var(--color4, #fff9eb)" d="M17.18 6.101c0 0.8-0.649 1.449-1.449 1.449s-1.449-0.649-1.449-1.449c0-0.8 0.649-1.449 1.449-1.449s1.449 0.649 1.449 1.449z"></path>
<path fill="#fff9eb" style="fill: var(--color4, #fff9eb)" d="M10.082 10.199c0 0.8-0.649 1.449-1.449 1.449s-1.449-0.649-1.449-1.449c0-0.8 0.649-1.449 1.449-1.449s1.449 0.649 1.449 1.449z"></path>
<path fill="#fff9eb" style="fill: var(--color4, #fff9eb)" d="M15.679 11.7c0 0.8-0.649 1.449-1.449 1.449s-1.449-0.649-1.449-1.449c0-0.8 0.649-1.449 1.449-1.449s1.449 0.649 1.449 1.449z"></path>
</symbol>
<symbol id="icon-download" viewBox="0 0 32 32">
<title>download</title>
<path d="M16 18l8-8h-6v-8h-4v8h-6zM23.273 14.727l-2.242 2.242 8.128 3.031-13.158 4.907-13.158-4.907 8.127-3.031-2.242-2.242-8.727 3.273v8l16 6 16-6v-8z"></path>
</symbol>
<symbol id="icon-plus" viewBox="0 0 32 32">
<title>plus</title>
<path d="M31 12h-11v-11c0-0.552-0.448-1-1-1h-6c-0.552 0-1 0.448-1 1v11h-11c-0.552 0-1 0.448-1 1v6c0 0.552 0.448 1 1 1h11v11c0 0.552 0.448 1 1 1h6c0.552 0 1-0.448 1-1v-11h11c0.552 0 1-0.448 1-1v-6c0-0.552-0.448-1-1-1z"></path>
</symbol>
<symbol id="icon-loop2" viewBox="0 0 32 32">
<title>loop2</title>
<path d="M27.802 5.197c-2.925-3.194-7.13-5.197-11.803-5.197-8.837 0-16 7.163-16 16h3c0-7.18 5.82-13 13-13 3.844 0 7.298 1.669 9.678 4.322l-4.678 4.678h11v-11l-4.198 4.197z"></path>
<path d="M29 16c0 7.18-5.82 13-13 13-3.844 0-7.298-1.669-9.678-4.322l4.678-4.678h-11v11l4.197-4.197c2.925 3.194 7.13 5.197 11.803 5.197 8.837 0 16-7.163 16-16h-3z"></path>
</symbol>
</defs>
</svg>
